<?xml version="1.0" encoding="UTF-8"?>
<svg xmlns="http://www.w3.org/2000/svg" xmlns:xlink="http://www.w3.org/1999/xlink" width="395.3pt" height="305.5pt" viewBox="0 0 395.3 305.5" version="1.1">
<g id="surface1">
<path style=" stroke:none;fill-rule:evenodd;fill:rgb(100%,100%,100%);fill-opacity:1;" d="M 0.078125 305.40625 L 395.320313 305.40625 L 395.320313 -0.0078125 L 0.078125 -0.0078125 Z M 0.078125 305.40625 "/>
<path style=" stroke:none;fill-rule:evenodd;fill:rgb(100%,100%,100%);fill-opacity:1;" d="M 197.503906 46.199219 C 198.605469 46.199219 199.910156 46.230469 201.414063 46.289063 C 201.78125 28.808594 211.140625 19.847656 211.167969 19.816406 C 212.382813 18.636719 213.996094 18.109375 215.566406 18.238281 L 215.566406 18.226563 C 224.480469 18.972656 227.652344 20.617188 227.660156 20.625 C 228.882813 21.25 229.78125 22.261719 230.28125 23.433594 L 230.289063 23.429688 L 230.292969 23.4375 L 230.304688 23.464844 L 230.316406 23.460938 C 235.527344 35.886719 232.304688 45.976563 230.492188 51.5 C 230.625 51.542969 230.757813 51.585938 230.894531 51.632813 C 233.089844 52.363281 235.261719 53.175781 237.402344 54.054688 C 243.742188 38.035156 255.386719 32.886719 255.421875 32.871094 C 257.136719 32.089844 259.039063 32.238281 260.5625 33.105469 C 268.34375 36.734375 270.636719 39.21875 270.644531 39.226563 C 271.609375 40.246094 272.117188 41.53125 272.175781 42.832031 L 272.191406 42.832031 L 272.191406 42.847656 C 272.765625 54.433594 268.042969 62.265625 264.433594 67.132813 L 270.410156 67.132813 C 271.707031 67.132813 272.898438 67.570313 273.851563 68.304688 C 283.886719 60.152344 293.222656 59.585938 293.253906 59.582031 C 295.066406 59.453125 296.738281 60.195313 297.863281 61.449219 C 299.960938 63.5625 301.425781 65.203125 302.441406 66.441406 C 302.582031 66.617188 302.71875 66.785156 302.847656 66.945313 L 319.519531 66.945313 C 321.558594 66.945313 323.34375 68.023438 324.339844 69.640625 C 325.90625 71.867188 327.457031 74.222656 329 76.710938 C 330.585938 79.28125 332.054688 81.828125 333.394531 84.351563 C 334.136719 85.761719 334.222656 87.34375 333.761719 88.746094 C 335.371094 89.316406 336.648438 90.59375 337.210938 92.207031 C 338.292969 94.636719 339.273438 97.03125 340.144531 99.386719 C 341.054688 101.851563 341.917969 104.476563 342.730469 107.261719 C 343.132813 108.65625 342.976563 110.082031 342.386719 111.296875 C 343.65625 112.191406 344.542969 113.59375 344.746094 115.214844 C 345.242188 117.488281 345.671875 119.796875 346.039063 122.144531 C 346.429688 124.664063 346.746094 127.214844 346.980469 129.796875 C 347.261719 132.898438 344.976563 135.636719 341.875 135.917969 C 341.703125 135.933594 341.535156 135.941406 341.367188 135.941406 L 341.367188 135.960938 L 302.300781 135.960938 C 302.390625 136.507813 302.476563 137.058594 302.554688 137.617188 C 320.195313 134.964844 330.828125 142.789063 330.859375 142.816406 C 332.289063 143.84375 333.09375 145.417969 333.195313 147.046875 C 333.996094 156.132813 332.949219 159.445313 332.949219 159.453125 C 332.519531 160.890625 331.570313 162.027344 330.371094 162.726563 C 319.105469 169.851563 308.695313 168.644531 302.75 167.792969 C 302.628906 168.730469 302.554688 169.304688 302.523438 169.507813 C 302.253906 171.320313 301.929688 173.144531 301.558594 174.972656 C 318.421875 178.191406 325.792969 188.539063 325.816406 188.570313 C 326.816406 189.941406 327.105469 191.609375 326.753906 193.140625 L 326.769531 193.144531 C 324.691406 202.105469 322.597656 205.019531 322.589844 205.03125 C 321.773438 206.199219 320.589844 206.964844 319.304688 207.277344 C 306.371094 210.597656 296.84375 206.261719 291.417969 203.578125 C 290.511719 205.300781 289.554688 207.003906 288.546875 208.691406 C 303.378906 217.914063 306.480469 230.4375 306.488281 230.476563 C 306.914063 232.128906 306.566406 233.796875 305.667969 235.097656 L 305.671875 235.097656 C 300.445313 242.664063 297.425781 244.605469 297.414063 244.613281 C 296.253906 245.375 294.917969 245.652344 293.636719 245.496094 L 293.636719 245.519531 L 293.628906 245.519531 C 280.851563 243.929688 273.613281 236.867188 269.453125 232.324219 C 267.734375 233.921875 265.96875 235.460938 264.152344 236.941406 C 274.054688 250.667969 272.429688 263.035156 272.421875 263.074219 C 272.21875 264.820313 271.238281 266.285156 269.867188 267.164063 C 262.308594 272.246094 258.824219 272.949219 258.8125 272.953125 C 257.441406 273.242188 256.082031 273.007813 254.941406 272.386719 L 254.9375 272.394531 C 250.160156 269.804688 246.660156 266.660156 244.039063 263.460938 C 242.816406 269.882813 240.046875 275.066406 235.179688 278.25 C 233.949219 279.054688 232.621094 279.664063 231.199219 280.101563 C 230.765625 281.253906 230.433594 281.898438 230.433594 281.898438 C 229.664063 283.394531 228.316406 284.398438 226.804688 284.785156 L 226.808594 284.796875 C 217.914063 287.058594 214.351563 286.535156 214.34375 286.535156 C 212.84375 286.332031 211.566406 285.5625 210.691406 284.46875 C 207.929688 281.339844 205.988281 278.128906 204.617188 275.003906 C 203.539063 272.542969 202.816406 270.144531 202.332031 267.886719 L 202.285156 267.847656 C 201.847656 267.429688 201.375 266.96875 200.867188 266.46875 C 199.65625 265.273438 198.449219 264.027344 197.25 262.734375 C 196.046875 264.03125 194.855469 265.269531 193.683594 266.429688 C 193.257813 268.859375 192.585938 271.460938 191.503906 274.117188 C 190.09375 277.582031 187.988281 281.183594 184.839844 284.699219 C 183.910156 285.742188 182.675781 286.355469 181.390625 286.527344 L 181.394531 286.535156 C 181.382813 286.535156 177.820313 287.058594 168.925781 284.796875 C 167.070313 284.324219 165.664063 282.984375 165.03125 281.320313 C 164.929688 281.09375 164.808594 280.804688 164.671875 280.457031 C 164.515625 280.425781 164.359375 280.390625 164.203125 280.351563 C 162.476563 279.933594 160.847656 279.242188 159.332031 278.25 L 159.328125 278.246094 C 157.964844 277.351563 156.738281 276.265625 155.644531 275.003906 C 154.605469 273.804688 153.722656 272.476563 152.980469 271.035156 C 151.984375 269.101563 151.238281 266.945313 150.714844 264.609375 C 148.214844 267.40625 144.996094 270.117188 140.789063 272.398438 C 139.222656 273.25 137.433594 273.28125 135.910156 272.644531 C 134.371094 272.101563 131.058594 270.667969 125.761719 267.097656 C 124.34375 266.140625 123.496094 264.652344 123.3125 263.074219 L 123.308594 263.074219 C 123.304688 263.035156 121.710938 250.890625 131.3125 237.316406 C 129.480469 235.839844 127.6875 234.292969 125.945313 232.6875 C 121.738281 237.238281 114.542969 243.976563 102.097656 245.519531 C 100.261719 245.746094 98.527344 245.0625 97.335938 243.824219 C 96.050781 242.6875 93.546875 240.144531 90.0625 235.097656 C 89.058594 233.644531 88.832031 231.882813 89.292969 230.308594 C 89.710938 228.816406 93.246094 217.597656 106.664063 209.023438 C 105.652344 207.34375 104.679688 205.617188 103.75 203.855469 C 98.230469 206.550781 88.886719 210.5 76.347656 207.261719 C 74.671875 206.828125 73.367188 205.683594 72.675781 204.230469 C 71.941406 202.855469 70.449219 199.539063 68.964844 193.144531 C 68.539063 191.28125 69.089844 189.417969 70.28125 188.097656 C 71.929688 186.066406 79.199219 178.050781 93.464844 175.113281 C 92.976563 172.703125 92.566406 170.234375 92.234375 167.707031 C 86.152344 168.546875 76.023438 169.402344 65.113281 162.40625 C 63.925781 161.644531 63.121094 160.515625 62.75 159.265625 L 62.746094 159.265625 C 62.746094 159.265625 62.710938 159.152344 62.65625 158.90625 C 62.640625 158.832031 62.625 158.761719 62.609375 158.683594 C 62.355469 157.382813 61.882813 153.769531 62.511719 146.71875 C 62.660156 145.015625 63.550781 143.554688 64.835938 142.628906 C 64.867188 142.605469 75.242188 134.96875 92.496094 137.335938 C 92.566406 136.867188 92.640625 136.402344 92.714844 135.941406 L 53.804688 135.941406 C 50.691406 135.941406 48.167969 133.417969 48.167969 130.304688 C 48.167969 130.191406 48.171875 130.082031 48.179688 129.972656 L 48.167969 129.972656 C 48.816406 119.167969 51.191406 108.726563 55.082031 98.601563 C 58.949219 88.539063 64.273438 78.871094 70.847656 69.542969 C 71.945313 67.980469 73.691406 67.144531 75.464844 67.144531 L 75.464844 67.132813 L 92.351563 67.132813 L 92.5 66.941406 C 93.566406 65.59375 95.195313 63.71875 97.671875 61.238281 C 98.867188 60.035156 100.476563 59.484375 102.046875 59.589844 L 102.046875 59.582031 C 102.078125 59.585938 111.171875 60.132813 120.941406 68.039063 C 121.828125 67.46875 122.882813 67.132813 124.015625 67.132813 L 130.652344 67.132813 C 127.042969 62.261719 122.316406 54.425781 122.894531 42.832031 C 122.980469 41.023438 123.90625 39.457031 125.277344 38.488281 C 126.542969 37.464844 129.417969 35.449219 134.980469 32.894531 C 136.527344 32.1875 138.222656 32.238281 139.65625 32.890625 L 139.667969 32.871094 C 139.703125 32.886719 151.335938 38.03125 157.675781 54.027344 C 160.046875 53.058594 162.46875 52.171875 164.9375 51.367188 C 163.105469 45.75 160.222656 35.886719 165.285156 23.828125 C 166.003906 22.113281 167.46875 20.941406 169.140625 20.523438 C 170.761719 19.976563 174.144531 19.09375 180.03125 18.601563 C 181.945313 18.441406 183.714844 19.257813 184.855469 20.632813 C 186.671875 22.613281 193.738281 31.246094 194.171875 46.269531 C 195.53125 46.222656 196.644531 46.199219 197.503906 46.199219 Z M 197.503906 46.199219 "/>
<path style="fill-rule:evenodd;fill:rgb(69.334412%,70.117188%,70.506287%);fill-opacity:1;stroke-width:42.438;stroke-linecap:round;stroke-linejoin:round;stroke:rgb(10.594177%,9.812927%,9.423828%);stroke-opacity:1;stroke-miterlimit:4;" d="M 1972.421875 2536.5625 C 2000.820313 2536.5625 2028.945313 2535.3125 2056.71875 2532.96875 C 2071.523438 2542.65625 2068.046875 2566.25 2068.046875 2566.25 C 2062.460938 2734.296875 2148.398438 2816.484375 2148.398438 2816.484375 C 2226.875 2809.921875 2248.359375 2798.710938 2248.359375 2798.710938 C 2297.734375 2681.09375 2256.640625 2584.921875 2243.59375 2541.953125 C 2230.507813 2499.023438 2249.179688 2498.085938 2249.179688 2498.085938 L 2245.3125 2498.671875 C 2297.109375 2483.945313 2347.148438 2465.117188 2395.15625 2442.578125 C 2408.359375 2450.195313 2414.296875 2466.953125 2414.296875 2466.953125 C 2466.210938 2626.875 2575.039063 2674.921875 2575.039063 2674.921875 C 2646.5625 2642.03125 2662.929688 2624.179688 2662.929688 2624.179688 C 2669.335938 2496.757813 2597.96875 2420.3125 2571.054688 2384.375 C 2558.75 2367.96875 2556.054688 2355.78125 2556.757813 2347.421875 C 2600.15625 2316.054688 2640.9375 2281.289063 2678.828125 2243.554688 C 2693.398438 2246.875 2704.257813 2259.882813 2704.257813 2259.882813 C 2811.71875 2395.585938 2933.945313 2402.929688 2933.945313 2402.929688 C 2991.171875 2345.585938 3000.585938 2322.460938 3000.585938 2322.460938 C 2961.054688 2197.1875 2864.804688 2149.023438 2825.9375 2123.984375 C 2810.859375 2114.257813 2803.554688 2105.039063 2800.273438 2097.34375 C 2840.078125 2039.179688 2873.984375 1976.640625 2901.210938 1910.546875 C 2905.15625 1912.96875 2907.578125 1915.039063 2907.578125 1915.039063 C 3036.054688 2031.054688 3157.773438 2018.046875 3157.773438 2018.046875 C 3204.726563 1951.992188 3210.15625 1927.617188 3210.15625 1927.617188 C 3150.429688 1810.664063 3047.5 1779.101563 3005.039063 1760.859375 C 2983.4375 1751.5625 2968.398438 1734.0625 2958.828125 1719.140625 C 2965 1687.695313 2969.726563 1655.742188 2972.929688 1623.359375 C 2986.523438 1615.078125 3005.039063 1618.4375 3005.039063 1618.4375 C 3174.492188 1653.867188 3273.085938 1581.210938 3273.085938 1581.210938 C 3280.3125 1500.507813 3272.734375 1476.71875 3272.734375 1476.71875 C 3162.148438 1405.820313 3057.34375 1430.46875 3011.484375 1436.132813 C 2993.242188 1438.398438 2981.601563 1435.78125 2974.179688 1431.796875 C 2969.21875 1374.179688 2959.492188 1317.96875 2945.429688 1263.515625 C 2955.429688 1256.875 2967.03125 1255.273438 2967.03125 1255.273438 C 3139.0625 1236.015625 3210.039063 1136.25 3210.039063 1136.25 C 3191.71875 1057.304688 3177.109375 1037.109375 3177.109375 1037.109375 C 3049.921875 1004.257813 2958.046875 1060.351563 2916.25 1080.078125 C 2901.523438 1086.992188 2890.546875 1088.671875 2882.460938 1088.007813 C 2860.625 1041.210938 2835.351563 996.367188 2806.992188 953.828125 C 2813.710938 942.734375 2825.390625 936.171875 2825.390625 936.171875 C 2978.320313 855.078125 3007.695313 736.210938 3007.695313 736.210938 C 2961.640625 669.492188 2940.625 656.054688 2940.625 656.054688 C 2810.273438 672.226563 2745.429688 758.203125 2713.789063 791.875 C 2705.078125 801.132813 2697.304688 806.5625 2690.625 809.609375 C 2650.703125 768.4375 2607.34375 730.703125 2561.015625 696.835938 C 2564.335938 689.0625 2568.710938 683.671875 2568.710938 683.671875 C 2681.523438 552.382813 2665.507813 431.015625 2665.507813 431.015625 C 2598.28125 385.703125 2573.828125 380.859375 2573.828125 380.859375 C 2458.359375 443.476563 2429.335938 547.148438 2412.148438 590.039063 C 2410.078125 595.273438 2407.851563 599.726563 2405.625 603.515625 C 2353.867188 578.476563 2299.648438 557.8125 2243.4375 541.953125 C 2244.296875 536.367188 2245.664063 532.5 2245.664063 532.5 C 2307.578125 370.859375 2251.5625 261.992188 2251.5625 261.992188 C 2173.007813 241.992188 2148.320313 245.703125 2148.320313 245.703125 C 2060.742188 343.59375 2068.398438 450.976563 2066.679688 497.148438 C 2066.523438 501.445313 2066.171875 505.351563 2065.625 508.90625 C 2034.921875 506.054688 2003.828125 504.570313 1972.421875 504.570313 C 1943.4375 504.570313 1914.765625 505.820313 1886.40625 508.242188 C 1885.9375 504.882813 1885.585938 501.210938 1885.46875 497.148438 C 1883.75 450.976563 1891.40625 343.59375 1803.828125 245.703125 C 1803.828125 245.703125 1779.140625 241.992188 1700.585938 261.992188 C 1700.585938 261.992188 1644.570313 370.859375 1706.484375 532.5 C 1706.484375 532.5 1707.539063 535.46875 1708.359375 540 C 1651.757813 555.546875 1597.148438 575.9375 1544.960938 600.742188 C 1543.242188 597.617188 1541.601563 594.0625 1540 590.039063 C 1522.8125 547.148438 1493.789063 443.476563 1378.320313 380.859375 C 1378.320313 380.859375 1353.828125 385.703125 1286.640625 431.015625 C 1286.640625 431.015625 1270.625 552.382813 1383.4375 683.671875 C 1383.4375 683.671875 1386.40625 687.304688 1389.257813 692.929688 C 1341.875 727.109375 1297.5 765.3125 1256.679688 807.109375 C 1251.171875 803.828125 1245.039063 798.984375 1238.359375 791.875 C 1206.71875 758.203125 1141.875 672.226563 1011.523438 656.054688 C 1011.523438 656.054688 990.507813 669.492188 944.453125 736.210938 C 944.453125 736.210938 973.828125 855.078125 1126.757813 936.171875 C 1126.757813 936.171875 1134.804688 940.703125 1141.367188 948.554688 C 1111.5625 992.65625 1085.117188 1039.257813 1062.382813 1087.96875 C 1055.3125 1087.382813 1046.601563 1085.078125 1035.898438 1080.078125 C 994.101563 1060.351563 902.226563 1004.257813 775.039063 1037.109375 C 775.039063 1037.109375 760.429688 1057.304688 742.109375 1136.25 C 742.109375 1136.25 813.085938 1236.015625 985.117188 1255.273438 C 985.117188 1255.273438 992.382813 1256.289063 1000.351563 1259.960938 C 985.390625 1317.03125 975.15625 1376.054688 970.234375 1436.640625 C 963.046875 1438.710938 953.359375 1439.609375 940.273438 1438.007813 C 894.375 1432.34375 789.609375 1407.695313 679.023438 1478.59375 C 679.023438 1478.59375 671.445313 1502.382813 678.671875 1583.085938 C 678.671875 1583.085938 777.265625 1655.703125 946.679688 1620.3125 C 946.679688 1620.3125 959.609375 1617.929688 971.757813 1621.992188 C 975.3125 1658.046875 980.703125 1693.515625 987.890625 1728.359375 C 978.359375 1741.367188 964.84375 1754.921875 946.679688 1762.695313 C 904.21875 1780.9375 801.289063 1812.5 741.5625 1929.492188 C 741.5625 1929.492188 746.992188 1953.828125 793.945313 2019.921875 C 793.945313 2019.921875 915.703125 2032.929688 1044.179688 1916.914063 C 1044.179688 1916.914063 1044.726563 1916.445313 1045.742188 1915.664063 C 1072.929688 1980.585938 1106.601563 2042.070313 1145.9375 2099.296875 C 1144.570313 2107.695313 1138.4375 2119.453125 1118.984375 2131.992188 C 1081.25 2156.289063 987.734375 2203.085938 949.375 2324.765625 C 949.375 2324.765625 958.515625 2347.226563 1014.101563 2402.929688 C 1014.101563 2402.929688 1132.8125 2395.820313 1237.1875 2263.984375 C 1237.1875 2263.984375 1251.992188 2246.25 1270.039063 2247.460938 C 1307.03125 2283.90625 1346.757813 2317.539063 1388.945313 2347.96875 C 1389.492188 2356.328125 1386.640625 2368.320313 1374.609375 2384.375 C 1347.695313 2420.3125 1276.328125 2496.757813 1282.734375 2624.179688 C 1282.734375 2624.179688 1299.101563 2642.03125 1370.625 2674.921875 C 1370.625 2674.921875 1479.453125 2626.875 1531.367188 2466.953125 C 1531.367188 2466.953125 1537.226563 2450.46875 1550.195313 2442.773438 C 1601.25 2466.679688 1654.648438 2486.445313 1709.921875 2501.484375 C 1712.460938 2507.421875 1713.242188 2518.320313 1707.1875 2538.242188 C 1694.101563 2581.171875 1653.007813 2677.34375 1702.421875 2794.960938 C 1702.421875 2794.960938 1723.90625 2806.210938 1802.34375 2812.734375 C 1802.34375 2812.734375 1888.28125 2730.546875 1882.695313 2562.5 C 1882.695313 2562.5 1882.109375 2541.796875 1898.789063 2533.828125 C 1923.125 2535.625 1947.65625 2536.5625 1972.421875 2536.5625 Z M 1972.421875 2536.5625 " transform="matrix(0.1,0,0,-0.1,0,305.5)"/>
<path style="fill-rule:evenodd;fill:rgb(61.131287%,61.914063%,62.304688%);fill-opacity:1;stroke-width:28.292;stroke-linecap:round;stroke-linejoin:round;stroke:rgb(10.594177%,9.812927%,9.423828%);stroke-opacity:1;stroke-miterlimit:4;" d="M 1962.070313 2379.648438 C 2436.445313 2379.648438 2821.171875 1994.921875 2821.171875 1520.546875 C 2821.171875 1046.132813 2436.445313 661.445313 1962.070313 661.445313 C 1487.65625 661.445313 1102.929688 1046.132813 1102.929688 1520.546875 C 1102.929688 1994.921875 1487.65625 2379.648438 1962.070313 2379.648438 Z M 1962.070313 2446.71875 C 2473.476563 2446.71875 2888.203125 2031.953125 2888.203125 1520.546875 C 2888.203125 1009.101563 2473.476563 594.375 1962.070313 594.375 C 1450.625 594.375 1035.898438 1009.101563 1035.898438 1520.546875 C 1035.898438 2031.953125 1450.625 2446.71875 1962.070313 2446.71875 Z M 1962.070313 2446.71875 " transform="matrix(0.1,0,0,-0.1,0,305.5)"/>
<path style="fill-rule:evenodd;fill:rgb(100%,100%,100%);fill-opacity:1;stroke-width:42.437;stroke-linecap:round;stroke-linejoin:round;stroke:rgb(10.594177%,9.812927%,9.423828%);stroke-opacity:1;stroke-miterlimit:4;" d="M 807.109375 982.773438 L 1438.671875 986.484375 L 1551.015625 859.53125 L 1762.1875 857.65625 C 1762.1875 857.65625 1967.539063 725.078125 2201.953125 863.242188 L 2387.929688 857.65625 L 2502.226563 977.148438 L 3133.75 977.148438 C 3133.75 977.148438 3156.992188 891.25 2996.210938 887.539063 C 2996.210938 887.539063 2887.734375 906.210938 2798.59375 865.117188 C 2709.492188 824.0625 2668.828125 840.859375 2668.828125 840.859375 C 2668.828125 840.859375 2624.257813 861.40625 2550.625 792.304688 C 2477.03125 723.203125 2475.078125 661.601563 2240.664063 702.65625 C 2240.664063 702.65625 2159.335938 710.15625 2091.523438 654.140625 L 1984.960938 596.25 L 1921.054688 629.84375 C 1921.054688 629.84375 1752.5 726.953125 1694.375 704.53125 C 1636.25 682.148438 1514.21875 680.273438 1483.203125 713.867188 C 1483.203125 713.867188 1409.609375 764.296875 1374.726563 799.765625 C 1339.84375 835.234375 1328.242188 850.195313 1250.742188 837.109375 C 1173.242188 824.0625 1113.203125 881.914063 1113.203125 881.914063 C 1113.203125 881.914063 1035.703125 902.460938 975.664063 889.414063 C 915.585938 876.328125 822.617188 889.414063 807.109375 982.773438 Z M 807.109375 982.773438 " transform="matrix(0.1,0,0,-0.1,0,305.5)"/>
<path style="fill-rule:evenodd;fill:rgb(61.131287%,61.914063%,62.304688%);fill-opacity:1;stroke-width:28.292;stroke-linecap:round;stroke-linejoin:round;stroke:rgb(10.594177%,9.812927%,9.423828%);stroke-opacity:1;stroke-miterlimit:4;" d="M 1973.242188 1879.0625 C 2169.179688 1879.0625 2328.046875 1720.195313 2328.046875 1524.257813 C 2328.046875 1328.359375 2169.179688 1169.492188 1973.242188 1169.492188 C 1777.34375 1169.492188 1618.476563 1328.359375 1618.476563 1524.257813 C 1618.476563 1720.195313 1777.34375 1879.0625 1973.242188 1879.0625 Z M 1973.242188 1815.585938 C 2134.101563 1815.585938 2264.570313 1685.117188 2264.570313 1524.257813 C 2264.570313 1363.4375 2134.101563 1232.96875 1973.242188 1232.96875 C 1812.421875 1232.96875 1681.953125 1363.4375 1681.953125 1524.257813 C 1681.953125 1685.117188 1812.421875 1815.585938 1973.242188 1815.585938 Z M 1973.242188 1815.585938 " transform="matrix(0.1,0,0,-0.1,0,305.5)"/>
<path style="fill-rule:evenodd;fill:rgb(100%,100%,100%);fill-opacity:1;stroke-width:42.438;stroke-linecap:round;stroke-linejoin:round;stroke:rgb(10.594177%,9.812927%,9.423828%);stroke-opacity:1;stroke-miterlimit:4;" d="M 1311.328125 1704.453125 C 1311.328125 1704.453125 1259.960938 1560.703125 1309.453125 1358.085938 C 1309.453125 1358.085938 1330 1302.070313 1387.851563 1316.992188 C 1387.851563 1316.992188 1513.90625 1391.679688 1526.992188 1395.429688 C 1526.992188 1395.429688 1553.125 1409.453125 1540.039063 1449.570313 C 1540.039063 1449.570313 1521.367188 1540.15625 1540.976563 1612.96875 C 1540.976563 1612.96875 1552.1875 1638.164063 1529.765625 1660.585938 L 1410.273438 1729.6875 C 1410.273438 1729.6875 1343.984375 1767.96875 1311.328125 1704.453125 Z M 1795.195313 869.765625 C 1795.195313 869.765625 1645 897.1875 1494.257813 1041.328125 C 1494.257813 1041.328125 1456.015625 1087.148438 1497.890625 1129.804688 C 1497.890625 1129.804688 1625.625 1201.601563 1635.390625 1211.054688 C 1635.390625 1211.054688 1660.585938 1226.71875 1688.828125 1195.3125 C 1688.828125 1195.3125 1757.890625 1133.867188 1830.78125 1114.414063 C 1830.78125 1114.414063 1858.203125 1111.523438 1866.40625 1080.898438 L 1866.484375 942.890625 C 1866.484375 942.890625 1866.484375 866.328125 1795.195313 869.765625 Z M 2150.664063 869.765625 C 2150.664063 869.765625 2300.859375 897.1875 2451.601563 1041.328125 C 2451.601563 1041.328125 2489.84375 1087.148438 2447.929688 1129.804688 C 2447.929688 1129.804688 2320.234375 1201.601563 2310.46875 1211.054688 C 2310.46875 1211.054688 2285.273438 1226.71875 2257.03125 1195.3125 C 2257.03125 1195.3125 2187.929688 1133.867188 2115.078125 1114.414063 C 2115.078125 1114.414063 2087.65625 1111.523438 2079.453125 1080.898438 L 2079.375 942.890625 C 2079.375 942.890625 2079.375 866.328125 2150.664063 869.765625 Z M 2638.945313 1704.453125 C 2638.945313 1704.453125 2690.273438 1560.703125 2640.820313 1358.085938 C 2640.820313 1358.085938 2620.273438 1302.070313 2562.382813 1316.992188 C 2562.382813 1316.992188 2436.328125 1391.679688 2423.28125 1395.429688 C 2423.28125 1395.429688 2397.109375 1409.453125 2410.195313 1449.570313 C 2410.195313 1449.570313 2428.867188 1540.15625 2409.257813 1612.96875 C 2409.257813 1612.96875 2398.046875 1638.164063 2420.46875 1660.585938 L 2539.960938 1729.6875 C 2539.960938 1729.6875 2606.25 1767.96875 2638.945313 1704.453125 Z M 2150.664063 2195 C 2150.664063 2195 2300.859375 2167.617188 2451.601563 2023.4375 C 2451.601563 2023.4375 2489.84375 1977.65625 2447.929688 1935 C 2447.929688 1935 2320.234375 1863.164063 2310.46875 1853.710938 C 2310.46875 1853.710938 2285.273438 1838.085938 2257.03125 1869.492188 C 2257.03125 1869.492188 2187.929688 1930.9375 2115.078125 1950.351563 C 2115.078125 1950.351563 2087.65625 1953.28125 2079.453125 1983.867188 L 2079.375 2121.914063 C 2079.375 2121.914063 2079.375 2198.476563 2150.664063 2195 Z M 1795.195313 2195 C 1795.195313 2195 1645 2167.617188 1494.257813 2023.4375 C 1494.257813 2023.4375 1456.015625 1977.65625 1497.890625 1935 C 1497.890625 1935 1625.625 1863.164063 1635.390625 1853.710938 C 1635.390625 1853.710938 1660.585938 1838.085938 1688.828125 1869.492188 C 1688.828125 1869.492188 1757.890625 1930.9375 1830.78125 1950.351563 C 1830.78125 1950.351563 1858.203125 1953.28125 1866.40625 1983.867188 L 1866.484375 2121.914063 C 1866.484375 2121.914063 1866.484375 2198.476563 1795.195313 2195 Z M 1795.195313 2195 " transform="matrix(0.1,0,0,-0.1,0,305.5)"/>
<path style="fill-rule:evenodd;fill:rgb(100%,100%,100%);fill-opacity:1;stroke-width:42.438;stroke-linecap:round;stroke-linejoin:round;stroke:rgb(10.594177%,9.812927%,9.423828%);stroke-opacity:1;stroke-miterlimit:4;" d="M 1926.5625 1752.070313 L 2019.921875 1752.070313 L 2019.921875 1701.25 C 2098.398438 1680.585938 2156.25 1609.179688 2156.25 1524.257813 C 2156.25 1423.242188 2074.296875 1341.289063 1973.242188 1341.289063 C 1872.226563 1341.289063 1790.273438 1423.242188 1790.273438 1524.257813 C 1790.273438 1609.179688 1848.125 1680.585938 1926.5625 1701.25 Z M 1926.5625 1752.070313 " transform="matrix(0.1,0,0,-0.1,0,305.5)"/>
<path style="fill-rule:evenodd;fill:rgb(0%,56.443787%,20.776367%);fill-opacity:1;stroke-width:42.438;stroke-linecap:round;stroke-linejoin:round;stroke:rgb(10.594177%,9.812927%,9.423828%);stroke-opacity:1;stroke-miterlimit:4;" d="M 1110.585938 1752.070313 C 918.867188 1752.070313 727.148438 1752.070313 535.46875 1752.070313 C 547.695313 1956.835938 625.273438 2147.34375 752.070313 2327.1875 C 871.5625 2327.1875 991.054688 2327.1875 1110.585938 2327.1875 L 1110.585938 2187.03125 L 836.40625 2187.03125 C 821.523438 2160.9375 805.429688 2137.890625 792.460938 2111.328125 C 788.59375 2103.359375 1062.578125 2117.890625 1110.585938 2113.085938 L 1110.585938 1976.992188 L 729.6875 1976.992188 C 719.648438 1950.546875 710.703125 1915.78125 703.164063 1888.828125 L 1110.585938 1888.828125 Z M 1110.585938 1752.070313 " transform="matrix(0.1,0,0,-0.1,0,305.5)"/>
<path style="fill-rule:evenodd;fill:rgb(0%,56.443787%,20.776367%);fill-opacity:1;stroke-width:42.438;stroke-linecap:round;stroke-linejoin:round;stroke:rgb(10.594177%,9.812927%,9.423828%);stroke-opacity:1;stroke-miterlimit:4;" d="M 1708.085938 1752.070313 L 1237.539063 1752.070313 L 1237.539063 1888.398438 L 1566.210938 1888.398438 L 1566.210938 1968.671875 L 1237.539063 1968.671875 L 1237.539063 2327.1875 L 1708.085938 2327.1875 L 1708.085938 2189.023438 L 1386.953125 2189.023438 L 1386.953125 2108.710938 L 1708.085938 2108.710938 Z M 1708.085938 1752.070313 " transform="matrix(0.1,0,0,-0.1,0,305.5)"/>
<path style="fill-rule:evenodd;fill:rgb(0%,56.443787%,20.776367%);fill-opacity:1;stroke-width:41.894;stroke-linecap:round;stroke-linejoin:round;stroke:rgb(10.594177%,9.812927%,9.423828%);stroke-opacity:1;stroke-miterlimit:4;" d="M 1842.539063 1752.070313 L 1988.203125 1752.070313 L 1988.203125 2327.1875 L 1842.539063 2327.1875 Z M 1842.539063 1752.070313 " transform="matrix(0.1,0,0,-0.1,0,305.5)"/>
<path style="fill-rule:evenodd;fill:rgb(0%,56.443787%,20.776367%);fill-opacity:1;stroke-width:42.438;stroke-linecap:round;stroke-linejoin:round;stroke:rgb(10.594177%,9.812927%,9.423828%);stroke-opacity:1;stroke-miterlimit:4;" d="M 2701.484375 1752.070313 L 2561.445313 1752.070313 L 2559.570313 1957.5 L 2417.65625 1752.070313 L 2275.742188 1959.335938 L 2272.03125 1752.070313 L 2122.65625 1752.070313 L 2122.65625 2327.1875 L 2269.921875 2327.1875 L 2417.65625 2110.585938 L 2562.617188 2327.1875 L 2701.484375 2327.1875 Z M 2701.484375 1752.070313 " transform="matrix(0.1,0,0,-0.1,0,305.5)"/>
<path style="fill-rule:evenodd;fill:rgb(0%,56.443787%,20.776367%);fill-opacity:1;stroke-width:42.438;stroke-linecap:round;stroke-linejoin:round;stroke:rgb(10.594177%,9.812927%,9.423828%);stroke-opacity:1;stroke-miterlimit:4;" d="M 3411.054688 1752.070313 L 2832.1875 1752.070313 L 2832.1875 2329.0625 C 2952.34375 2329.0625 3072.460938 2329.0625 3192.578125 2329.0625 C 3225.351563 2282.734375 3255.078125 2234.84375 3281.367188 2185.273438 L 2985.3125 2185.273438 L 2985.3125 2114.335938 L 3316.09375 2114.335938 C 3337.460938 2066.757813 3355.703125 2017.65625 3370.546875 1966.835938 L 2985.3125 1966.835938 L 2985.3125 1895.859375 L 3388.75 1895.859375 C 3399.0625 1849.375 3406.5625 1801.484375 3411.054688 1752.070313 Z M 3411.054688 1752.070313 " transform="matrix(0.1,0,0,-0.1,0,305.5)"/>
<path style="fill-rule:evenodd;fill:rgb(0%,56.443787%,20.776367%);fill-opacity:1;stroke-width:42.438;stroke-linecap:round;stroke-linejoin:round;stroke:rgb(10.594177%,9.812927%,9.423828%);stroke-opacity:1;stroke-miterlimit:4;" d="M 2250.507813 1627.460938 C 2074.375 1679.21875 1850.507813 1295.195313 1788.515625 1174.21875 C 1727.578125 1055.234375 1513.125 531.171875 1673.75 426.09375 C 1832.304688 322.34375 2121.992188 827.617188 2165.195313 925.15625 C 2210.507813 1027.5 2422.5 1576.953125 2250.507813 1627.460938 Z M 2304.882813 1727.773438 C 2097.382813 1788.75 1818.710938 1343.828125 1745.703125 1201.289063 C 1673.90625 1061.132813 1432.460938 443.710938 1621.679688 319.921875 C 1808.476563 197.734375 2183.359375 789.21875 2234.257813 904.140625 C 2287.65625 1024.726563 2507.5 1668.28125 2304.882813 1727.773438 Z M 2304.882813 1727.773438 " transform="matrix(0.1,0,0,-0.1,0,305.5)"/>
<path style="fill-rule:evenodd;fill:rgb(0%,56.443787%,20.776367%);fill-opacity:1;stroke-width:42.438;stroke-linecap:round;stroke-linejoin:round;stroke:rgb(10.594177%,9.812927%,9.423828%);stroke-opacity:1;stroke-miterlimit:4;" d="M 1689.414063 1627.460938 C 1865.585938 1679.21875 2089.414063 1295.195313 2151.40625 1174.21875 C 2212.34375 1055.234375 2426.796875 531.171875 2266.171875 426.09375 C 2107.617188 322.34375 1817.929688 827.617188 1774.726563 925.15625 C 1729.414063 1027.5 1517.421875 1576.953125 1689.414063 1627.460938 Z M 1635.039063 1727.773438 C 1842.539063 1788.75 2121.210938 1343.828125 2194.21875 1201.289063 C 2266.015625 1061.132813 2507.460938 443.710938 2318.242188 319.921875 C 2131.445313 197.734375 1756.5625 789.21875 1705.664063 904.140625 C 1652.265625 1024.726563 1432.421875 1668.28125 1635.039063 1727.773438 Z M 1635.039063 1727.773438 " transform="matrix(0.1,0,0,-0.1,0,305.5)"/>
<path style="fill-rule:evenodd;fill:rgb(0%,56.443787%,20.776367%);fill-opacity:1;stroke-width:42.438;stroke-linecap:round;stroke-linejoin:round;stroke:rgb(10.594177%,9.812927%,9.423828%);stroke-opacity:1;stroke-miterlimit:4;" d="M 1674.492188 885.664063 L 823.007813 1528.007813 L 1454.140625 1188.164063 L 1450.429688 1300.195313 L 1975.9375 932.96875 L 2496.09375 1296.484375 L 2492.34375 1184.414063 L 3123.515625 1524.257813 L 2272.03125 881.914063 L 2264.570313 986.484375 L 2049.257813 881.71875 L 2380.3125 650.390625 L 1977.109375 846.601563 L 1566.210938 646.640625 L 1903.554688 882.382813 L 1681.953125 990.234375 Z M 1674.492188 885.664063 " transform="matrix(0.1,0,0,-0.1,0,305.5)"/>
</g>
</svg>
